<?xml version="1.0" encoding="UTF-8" standalone="no"?> <!-- Created with Vectornator for iOS (http://vectornator.io/) --><!DOCTYPE svg PUBLIC "-//W3C//DTD SVG 1.1//EN" "http://www.w3.org/Graphics/SVG/1.1/DTD/svg11.dtd">
<svg height="100%" style="fill-rule:nonzero;clip-rule:evenodd;stroke-linecap:round;stroke-linejoin:round;" xmlns:xlink="http://www.w3.org/1999/xlink" xmlns="http://www.w3.org/2000/svg" xml:space="preserve" width="100%" xmlns:vectornator="http://vectornator.io" version="1.1" viewBox="0 0 594 420">
<metadata>
<vectornator:setting key="DimensionsVisible" value="1"/>
<vectornator:setting key="PencilOnly" value="1"/>
<vectornator:setting key="SnapToPoints" value="0"/>
<vectornator:setting key="OutlineMode" value="0"/>
<vectornator:setting key="CMYKEnabledKey" value="0"/>
<vectornator:setting key="RulersVisible" value="1"/>
<vectornator:setting key="SnapToEdges" value="0"/>
<vectornator:setting key="GuidesVisible" value="1"/>
<vectornator:setting key="DisplayWhiteBackground" value="0"/>
<vectornator:setting key="doHistoryDisabled" value="0"/>
<vectornator:setting key="SnapToGuides" value="1"/>
<vectornator:setting key="TimeLapseWatermarkDisabled" value="0"/>
<vectornator:setting key="Units" value="Points"/>
<vectornator:setting key="DynamicGuides" value="0"/>
<vectornator:setting key="IsolateActiveLayer" value="0"/>
<vectornator:setting key="SnapToGrid" value="0"/>
</metadata>
<defs/>
<g id="Layer 1" vectornator:layerName="Layer 1">
<g opacity="1">
<path d="M81.2342+95.168C84.6584+95.168+87.7063+94.5246+90.378+93.2378C93.0497+91.951+95.1489+90.1735+96.6756+87.9053C98.2023+85.6371+98.9657+83.0417+98.9657+80.1192C98.9657+77.6547+98.126+75.5827+96.4466+73.9034C94.7673+72.224+92.6844+71.1008+90.1981+70.5337L90.2308+70.272C92.4118+69.8576+94.3365+69.0888+96.005+67.9656C97.6734+66.8424+98.982+65.4302+99.9308+63.729C100.879+62.0279+101.354+60.1195+101.354+58.0039C101.354+56.1283+100.836+54.4326+99.7999+52.9168C98.7639+51.401+97.2045+50.196+95.1217+49.3018C93.0388+48.4076+90.438+47.9605+87.3192+47.9605L65.433+47.9605L55.3895+95.168L81.2342+95.168ZM77.1122+56.5645L82.4774+56.5645C84.1568+56.5645+85.4217+56.9353+86.2723+57.6768C87.1229+58.4183+87.5482+59.3671+87.5482+60.523C87.5482+61.5917+87.2756+62.5513+86.7303+63.4019C86.1851+64.2525+85.4217+64.9231+84.4403+65.4139C83.4588+65.9046+82.3029+66.1499+80.9725+66.1499L75.0838+66.1499L77.1122+56.5645ZM70.9618+85.648L73.2518+74.7539L79.3368+74.7539C80.6235+74.7539+81.6977+74.9393+82.5592+75.3101C83.4207+75.6809+84.0695+76.1988+84.5057+76.8641C84.9419+77.5293+85.16+78.3199+85.16+79.2359C85.16+80.5227+84.8601+81.6513+84.2603+82.6219C83.6606+83.5924+82.8045+84.3394+81.6922+84.8628C80.5799+85.3863+79.2495+85.648+77.701+85.648L70.9618+85.648Z" opacity="1" fill="#a20009"/>
<path d="M125.694+95.168L133.382+58.9527L146.5+58.9527L148.856+47.9605L108.747+47.9605L106.392+58.9527L119.511+58.9527L111.823+95.168L125.694+95.168Z" opacity="1" fill="#a20009"/>
<path d="M169.662+95.168C173.087+95.168+176.135+94.5246+178.806+93.2378C181.478+91.951+183.577+90.1735+185.104+87.9053C186.631+85.6371+187.394+83.0417+187.394+80.1192C187.394+77.6547+186.554+75.5827+184.875+73.9034C183.195+72.224+181.113+71.1008+178.626+70.5337L178.659+70.272C180.84+69.8576+182.765+69.0888+184.433+67.9656C186.102+66.8424+187.41+65.4302+188.359+63.729C189.308+62.0279+189.782+60.1195+189.782+58.0039C189.782+56.1283+189.264+54.4326+188.228+52.9168C187.192+51.401+185.633+50.196+183.55+49.3018C181.467+48.4076+178.866+47.9605+175.747+47.9605L153.861+47.9605L143.818+95.168L169.662+95.168ZM165.54+56.5645L170.906+56.5645C172.585+56.5645+173.85+56.9353+174.701+57.6768C175.551+58.4183+175.976+59.3671+175.976+60.523C175.976+61.5917+175.704+62.5513+175.159+63.4019C174.613+64.2525+173.85+64.9231+172.869+65.4139C171.887+65.9046+170.731+66.1499+169.401+66.1499L163.512+66.1499L165.54+56.5645ZM159.39+85.648L161.68+74.7539L167.765+74.7539C169.052+74.7539+170.126+74.9393+170.987+75.3101C171.849+75.6809+172.498+76.1988+172.934+76.8641C173.37+77.5293+173.588+78.3199+173.588+79.2359C173.588+80.5227+173.288+81.6513+172.689+82.6219C172.089+83.5924+171.233+84.3394+170.12+84.8628C169.008+85.3863+167.678+85.648+166.129+85.648L159.39+85.648Z" opacity="1" fill="#a20009"/>
</g>
<path d="M22.6875+48.3438L20.9062+56.5625L57.5+56.5625L59.25+48.3438L22.6875+48.3438ZM19.875+61.3125L18.0938+69.5625L54.6875+69.5625L56.4688+61.3125L19.875+61.3125ZM17.0625+74.3125L15.3125+82.5312L51.9062+82.5312L53.6562+74.3125L17.0625+74.3125ZM14.2812+87.2812L12.5+95.5L49.0938+95.5L50.875+87.2812L14.2812+87.2812Z" opacity="1" fill="#a20009"/>
<path d="M11.3194+100.31L191.031+100.3L189.191+108.553L9.56007+108.511L11.3194+100.31Z" opacity="1" fill="#a20009"/>
<path d="M112.653+91.2131L126.781+89.8539L122.946+108.543L108.48+108.566L112.653+91.2131Z" opacity="1" fill="#a20009"/>
<path d="M210.203+48.4744C224.272+48.8783+247.859+72.5624+242.939+86.162C238.018+99.7616+213.63+108.08+197.624+108.486C192.515+108.64+189.151+108.541+189.151+108.541L202.707+48.2601C202.707+48.2601+202.729+48.2599+210.203+48.4744Z" opacity="1" fill="#a20009"/>
</g>
</svg>
