<?xml version="1.0" encoding="UTF-8" standalone="no"?> <!-- Created with Vectornator for iOS (http://vectornator.io/) --><!DOCTYPE svg PUBLIC "-//W3C//DTD SVG 1.1//EN" "http://www.w3.org/Graphics/SVG/1.1/DTD/svg11.dtd">
<svg height="100%" style="fill-rule:nonzero;clip-rule:evenodd;stroke-linecap:round;stroke-linejoin:round;" xmlns:xlink="http://www.w3.org/1999/xlink" xmlns="http://www.w3.org/2000/svg" xml:space="preserve" width="100%" xmlns:vectornator="http://vectornator.io" version="1.1" viewBox="0 0 594 420">
<metadata>
<vectornator:setting key="DimensionsVisible" value="1"/>
<vectornator:setting key="PencilOnly" value="1"/>
<vectornator:setting key="SnapToPoints" value="0"/>
<vectornator:setting key="OutlineMode" value="0"/>
<vectornator:setting key="CMYKEnabledKey" value="0"/>
<vectornator:setting key="RulersVisible" value="1"/>
<vectornator:setting key="SnapToEdges" value="0"/>
<vectornator:setting key="GuidesVisible" value="1"/>
<vectornator:setting key="DisplayWhiteBackground" value="0"/>
<vectornator:setting key="doHistoryDisabled" value="0"/>
<vectornator:setting key="SnapToGuides" value="1"/>
<vectornator:setting key="TimeLapseWatermarkDisabled" value="0"/>
<vectornator:setting key="Units" value="Points"/>
<vectornator:setting key="DynamicGuides" value="0"/>
<vectornator:setting key="IsolateActiveLayer" value="0"/>
<vectornator:setting key="SnapToGrid" value="0"/>
</metadata>
<defs/>
<g id="Layer 1" vectornator:layerName="Layer 1">
<g opacity="1">
<path d="M81.2342+95.168C84.6584+95.168+87.7063+94.5246+90.378+93.2378C93.0497+91.951+95.1489+90.1735+96.6756+87.9053C98.2023+85.6371+98.9657+83.0417+98.9657+80.1192C98.9657+77.6547+98.126+75.5827+96.4466+73.9034C94.7673+72.224+92.6844+71.1008+90.1981+70.5337L90.2308+70.272C92.4118+69.8576+94.3365+69.0888+96.005+67.9656C97.6734+66.8424+98.982+65.4302+99.9308+63.729C100.879+62.0279+101.354+60.1195+101.354+58.0039C101.354+56.1283+100.836+54.4326+99.7999+52.9168C98.7639+51.401+97.2045+50.196+95.1217+49.3018C93.0388+48.4076+90.438+47.9605+87.3192+47.9605L65.433+47.9605L55.3895+95.168L81.2342+95.168ZM77.1122+56.5645L82.4774+56.5645C84.1568+56.5645+85.4217+56.9353+86.2723+57.6768C87.1229+58.4183+87.5482+59.3671+87.5482+60.523C87.5482+61.5917+87.2756+62.5513+86.7303+63.4019C86.1851+64.2525+85.4217+64.9231+84.4403+65.4139C83.4588+65.9046+82.3029+66.1499+80.9725+66.1499L75.0838+66.1499L77.1122+56.5645ZM70.9618+85.648L73.2518+74.7539L79.3368+74.7539C80.6235+74.7539+81.6977+74.9393+82.5592+75.3101C83.4207+75.6809+84.0695+76.1988+84.5057+76.8641C84.9419+77.5293+85.16+78.3199+85.16+79.2359C85.16+80.5227+84.8601+81.6513+84.2603+82.6219C83.6606+83.5924+82.8045+84.3394+81.6922+84.8628C80.5799+85.3863+79.2495+85.648+77.701+85.648L70.9618+85.648Z" opacity="1" fill="#235ed2"/>
<path d="M125.694+95.168L133.382+58.9527L146.5+58.9527L148.856+47.9605L108.747+47.9605L106.392+58.9527L119.511+58.9527L111.823+95.168L125.694+95.168Z" opacity="1" fill="#235ed2"/>
<path d="M169.662+95.168C173.087+95.168+176.135+94.5246+178.806+93.2378C181.478+91.951+183.577+90.1735+185.104+87.9053C186.631+85.6371+187.394+83.0417+187.394+80.1192C187.394+77.6547+186.554+75.5827+184.875+73.9034C183.195+72.224+181.113+71.1008+178.626+70.5337L178.659+70.272C180.84+69.8576+182.765+69.0888+184.433+67.9656C186.102+66.8424+187.41+65.4302+188.359+63.729C189.308+62.0279+189.782+60.1195+189.782+58.0039C189.782+56.1283+189.264+54.4326+188.228+52.9168C187.192+51.401+185.633+50.196+183.55+49.3018C181.467+48.4076+178.866+47.9605+175.747+47.9605L153.861+47.9605L143.818+95.168L169.662+95.168ZM165.54+56.5645L170.906+56.5645C172.585+56.5645+173.85+56.9353+174.701+57.6768C175.551+58.4183+175.976+59.3671+175.976+60.523C175.976+61.5917+175.704+62.5513+175.159+63.4019C174.613+64.2525+173.85+64.9231+172.869+65.4139C171.887+65.9046+170.731+66.1499+169.401+66.1499L163.512+66.1499L165.54+56.5645ZM159.39+85.648L161.68+74.7539L167.765+74.7539C169.052+74.7539+170.126+74.9393+170.987+75.3101C171.849+75.6809+172.498+76.1988+172.934+76.8641C173.37+77.5293+173.588+78.3199+173.588+79.2359C173.588+80.5227+173.288+81.6513+172.689+82.6219C172.089+83.5924+171.233+84.3394+170.12+84.8628C169.008+85.3863+167.678+85.648+166.129+85.648L159.39+85.648Z" opacity="1" fill="#235ed2"/>
</g>
<path d="M22.6875+48.3438L20.9062+56.5625L57.5+56.5625L59.25+48.3438L22.6875+48.3438ZM19.875+61.3125L18.0938+69.5625L54.6875+69.5625L56.4688+61.3125L19.875+61.3125ZM17.0625+74.3125L15.3125+82.5312L51.9062+82.5312L53.6562+74.3125L17.0625+74.3125ZM14.2812+87.2812L12.5+95.5L49.0938+95.5L50.875+87.2812L14.2812+87.2812Z" opacity="1" fill="#235ed2"/>
<path d="M11.3194+100.31L192.191+100.3L190.004+108.553L9.56007+108.511L11.3194+100.31Z" opacity="1" fill="#235ed2"/>
<path d="M112.653+91.2131L126.781+89.8539L122.946+108.543L108.48+108.566L112.653+91.2131Z" opacity="1" fill="#235ed2"/>
<path d="M210.199+48.3799L212.114+48.4216C212.114+48.4216+217.299+105+215.881+105.36C205.686+107.949+203.002+108.008+197.624+108.486C189.172+108.59+189.151+108.541+189.151+108.541L202.707+48.2601L210.199+48.3799Z" opacity="1" fill="#235ed2"/>
<path d="M244.308+73.0035C242.821+47.8248+210.928+48.4004+210.928+48.4004L215.82+105.376C215.82+105.376+245.875+99.5393+244.308+73.0035Z" opacity="1" fill="#235ed2"/>
<path d="M229.986+26.363L236.199+27.967L231.035+47.9697L224.822+46.3656L229.986+26.363Z" opacity="1" fill="#235ed2"/>
<path d="M249.985+34.4579L255.157+38.256L242.929+54.907L237.757+51.1089L249.985+34.4579Z" opacity="1" fill="#235ed2"/>
<path d="M265.346+50.8144L268.208+56.5573L249.719+65.7728L246.856+60.0299L265.346+50.8144Z" opacity="1" fill="#235ed2"/>
<path d="M270.812+73.5091L270.817+79.9258L250.159+79.9435L250.153+73.5268L270.812+73.5091Z" opacity="1" fill="#235ed2"/>
<path d="M268.41+95.5716L265.606+101.343L247.025+92.3137L249.829+86.5424L268.41+95.5716Z" opacity="1" fill="#235ed2"/>
<path d="M256.346+114.224L251.433+118.352L238.144+102.536L243.056+98.4077L256.346+114.224Z" opacity="1" fill="#235ed2"/>
<path d="M238.234+126.318L232.19+128.473L225.252+109.014L231.296+106.859L238.234+126.318Z" opacity="1" fill="#235ed2"/>
<path d="M218.548+132.535L212.174+133.277L209.787+112.756L216.161+112.015L218.548+132.535Z" opacity="1" fill="#235ed2"/>
<g opacity="1">
<path d="M17.9823+123.404L19.0428+118.412L19.16+118.412L19.9159+122.572L21.3807+122.572L23.9061+118.412L24.0233+118.412L22.9627+123.404L25.2538+123.404L27.0526+114.949L24.0409+114.949L21.2811+119.555L21.1639+119.555L20.3788+114.949L17.4842+114.949L15.6854+123.404L17.9823+123.404Z" opacity="1" fill="#235ed2"/>
<path d="M40.2948+121.436L36.8143+121.436L37.1073+120.07L40.3651+120.07L40.746+118.289L37.4882+118.289L37.7753+116.918L41.2499+116.918L41.6718+114.949L35.7128+114.949L33.9139+123.404L39.8788+123.404L40.2948+121.436Z" opacity="1" fill="#235ed2"/>
<path d="M52.7987+123.404L54.1757+116.918L56.5253+116.918L56.9472+114.949L49.7636+114.949L49.3417+116.918L51.6913+116.918L50.3144+123.404L52.7987+123.404Z" opacity="1" fill="#235ed2"/>
<path d="M69.7441+121.436L66.2636+121.436L66.5566+120.07L69.8144+120.07L70.1953+118.289L66.9375+118.289L67.2246+116.918L70.6992+116.918L71.121+114.949L65.1621+114.949L63.3632+123.404L69.3281+123.404L69.7441+121.436Z" opacity="1" fill="#235ed2"/>
<path d="M82.9746+116.807C83.2598+116.807+83.5088+116.878+83.7217+117.021C83.9346+117.163+84.0996+117.365+84.2168+117.627C84.334+117.889+84.3926+118.199+84.3926+118.559C84.3926+118.977+84.3369+119.367+84.2256+119.73C84.1142+120.094+83.9609+120.413+83.7656+120.688C83.5703+120.964+83.3457+121.179+83.0918+121.333C82.8379+121.487+82.5683+121.564+82.2832+121.564C81.998+121.564+81.75+121.492+81.539+121.348C81.3281+121.203+81.164+120.999+81.0469+120.735C80.9297+120.472+80.8711+120.162+80.8711+119.807C80.8711+119.389+80.9267+118.999+81.0381+118.638C81.1494+118.276+81.3027+117.958+81.498+117.683C81.6933+117.407+81.917+117.192+82.1689+117.038C82.4209+116.884+82.6894+116.807+82.9746+116.807ZM82.2305+123.639C82.8867+123.639+83.498+123.514+84.0644+123.264C84.6308+123.014+85.1279+122.657+85.5556+122.194C85.9834+121.731+86.3164+121.178+86.5547+120.533C86.793+119.889+86.9121+119.174+86.9121+118.389C86.9121+117.693+86.7637+117.069+86.4668+116.517C86.1699+115.964+85.7334+115.525+85.1572+115.201C84.581+114.877+83.873+114.715+83.0332+114.715C82.3769+114.715+81.7646+114.841+81.1963+115.093C80.6279+115.345+80.1308+115.702+79.7051+116.165C79.2793+116.628+78.9473+117.181+78.709+117.823C78.4707+118.466+78.3515+119.18+78.3515+119.965C78.3515+120.66+78.5049+121.285+78.8115+121.84C79.1181+122.395+79.5605+122.833+80.1387+123.155C80.7168+123.478+81.414+123.639+82.2305+123.639Z" opacity="1" fill="#235ed2"/>
<path d="M94.2715+123.404L96.7559+123.404L97.3594+120.568L98.2266+120.568L98.2266+120.568L99.1406+123.404L101.807+123.404L100.693+120.334C101.096+120.166+101.439+119.934+101.725+119.637C102.01+119.34+102.229+119.004+102.381+118.629C102.533+118.254+102.609+117.869+102.609+117.475C102.609+116.99+102.489+116.559+102.249+116.18C102.009+115.801+101.681+115.501+101.265+115.28C100.849+115.06+100.373+114.949+99.8379+114.949L96.0703+114.949L94.2715+123.404ZM98.168+116.783L99.0586+116.783C99.4024+116.783+99.6651+116.857+99.8467+117.006C100.028+117.154+100.119+117.379+100.119+117.68C100.119+117.91+100.064+118.115+99.9551+118.295C99.8457+118.475+99.6895+118.615+99.4863+118.717C99.2832+118.818+99.043+118.869+98.7656+118.869L97.7168+118.869L98.168+116.783Z" opacity="1" fill="#235ed2"/>
<path d="M114.879+116.807C115.164+116.807+115.413+116.878+115.626+117.021C115.839+117.163+116.004+117.365+116.121+117.627C116.238+117.889+116.297+118.199+116.297+118.559C116.297+118.977+116.241+119.367+116.13+119.73C116.019+120.094+115.865+120.413+115.67+120.688C115.475+120.964+115.25+121.179+114.996+121.333C114.742+121.487+114.473+121.564+114.188+121.564C113.902+121.564+113.654+121.492+113.443+121.348C113.232+121.203+113.068+120.999+112.951+120.735C112.834+120.472+112.775+120.162+112.775+119.807C112.775+119.389+112.831+118.999+112.942+118.638C113.054+118.276+113.207+117.958+113.402+117.683C113.598+117.407+113.821+117.192+114.073+117.038C114.325+116.884+114.594+116.807+114.879+116.807ZM114.135+123.639C114.791+123.639+115.402+123.514+115.969+123.264C116.535+123.014+117.032+122.657+117.46+122.194C117.888+121.731+118.221+121.178+118.459+120.533C118.697+119.889+118.816+119.174+118.816+118.389C118.816+117.693+118.668+117.069+118.371+116.517C118.074+115.964+117.638+115.525+117.062+115.201C116.485+114.877+115.777+114.715+114.938+114.715C114.281+114.715+113.669+114.841+113.101+115.093C112.532+115.345+112.035+115.702+111.609+116.165C111.184+116.628+110.852+117.181+110.613+117.823C110.375+118.466+110.256+119.18+110.256+119.965C110.256+120.66+110.409+121.285+110.716+121.84C111.023+122.395+111.465+122.833+112.043+123.155C112.621+123.478+113.318+123.639+114.135+123.639Z" opacity="1" fill="#235ed2"/>
<path d="M132.533+121.377L129.088+121.377L130.453+114.949L127.975+114.949L126.176+123.404L132.1+123.404L132.533+121.377Z" opacity="1" fill="#235ed2"/>
<path d="M145.119+116.807C145.404+116.807+145.653+116.878+145.866+117.021C146.079+117.163+146.244+117.365+146.361+117.627C146.479+117.889+146.537+118.199+146.537+118.559C146.537+118.977+146.482+119.367+146.37+119.73C146.259+120.094+146.106+120.413+145.91+120.688C145.715+120.964+145.49+121.179+145.236+121.333C144.983+121.487+144.713+121.564+144.428+121.564C144.143+121.564+143.895+121.492+143.684+121.348C143.473+121.203+143.309+120.999+143.192+120.735C143.074+120.472+143.016+120.162+143.016+119.807C143.016+119.389+143.071+118.999+143.183+118.638C143.294+118.276+143.447+117.958+143.643+117.683C143.838+117.407+144.062+117.192+144.314+117.038C144.566+116.884+144.834+116.807+145.119+116.807ZM144.375+123.639C145.031+123.639+145.643+123.514+146.209+123.264C146.776+123.014+147.273+122.657+147.7+122.194C148.128+121.731+148.461+121.178+148.699+120.533C148.938+119.889+149.057+119.174+149.057+118.389C149.057+117.693+148.908+117.069+148.611+116.517C148.315+115.964+147.878+115.525+147.302+115.201C146.726+114.877+146.018+114.715+145.178+114.715C144.522+114.715+143.909+114.841+143.341+115.093C142.773+115.345+142.276+115.702+141.85+116.165C141.424+116.628+141.092+117.181+140.854+117.823C140.615+118.466+140.496+119.18+140.496+119.965C140.496+120.66+140.65+121.285+140.956+121.84C141.263+122.395+141.705+122.833+142.283+123.155C142.861+123.478+143.559+123.639+144.375+123.639Z" opacity="1" fill="#235ed2"/>
<path d="M165.211+118.834L161.572+118.834L161.221+120.486L162.481+120.486L162.481+120.486C162.438+120.705+162.342+120.897+162.194+121.061C162.045+121.225+161.857+121.351+161.628+121.438C161.4+121.526+161.143+121.57+160.858+121.57C160.569+121.57+160.318+121.5+160.105+121.359C159.892+121.219+159.728+121.02+159.612+120.762C159.497+120.504+159.44+120.201+159.44+119.854C159.44+119.4+159.492+118.987+159.598+118.614C159.703+118.241+159.852+117.917+160.043+117.642C160.235+117.366+160.46+117.154+160.72+117.006C160.98+116.857+161.264+116.783+161.572+116.783C161.834+116.783+162.07+116.826+162.281+116.912C162.492+116.998+162.661+117.114+162.788+117.261C162.915+117.407+162.979+117.572+162.979+117.756L165.352+117.756C165.356+117.744+165.359+117.717+165.36+117.674C165.362+117.631+165.363+117.596+165.363+117.568C165.363+117.178+165.268+116.811+165.076+116.467C164.885+116.123+164.621+115.819+164.285+115.556C163.949+115.292+163.562+115.086+163.122+114.938C162.683+114.789+162.213+114.715+161.713+114.715C161.147+114.715+160.618+114.797+160.128+114.961C159.638+115.125+159.195+115.36+158.801+115.667C158.406+115.974+158.069+116.344+157.787+116.777C157.506+117.211+157.29+117.697+157.14+118.236C156.989+118.775+156.914+119.357+156.914+119.982C156.914+120.721+157.069+121.363+157.38+121.91C157.691+122.457+158.128+122.882+158.693+123.185C159.257+123.487+159.918+123.639+160.676+123.639C161.856+123.639+162.819+123.315+163.565+122.669C164.311+122.022+164.797+121.086+165.024+119.859L165.211+118.834Z" opacity="1" fill="#235ed2"/>
<path d="M176.977+123.404L177.545+120.727L181.658+114.949L178.998+114.949L176.848+118.307L176.731+118.307L175.998+114.949L173.397+114.949L175.061+120.727L174.492+123.404L176.977+123.404Z" opacity="1" fill="#235ed2"/>
</g>
</g>
</svg>
