<?xml version="1.0" encoding="UTF-8" standalone="no"?> <!-- Created with Vectornator for iOS (http://vectornator.io/) --><!DOCTYPE svg PUBLIC "-//W3C//DTD SVG 1.1//EN" "http://www.w3.org/Graphics/SVG/1.1/DTD/svg11.dtd">
<svg height="100%" style="fill-rule:nonzero;clip-rule:evenodd;stroke-linecap:round;stroke-linejoin:round;" xmlns:xlink="http://www.w3.org/1999/xlink" xmlns="http://www.w3.org/2000/svg" xml:space="preserve" width="100%" xmlns:vectornator="http://vectornator.io" version="1.1" viewBox="0 0 297 210">
<metadata>
<vectornator:setting key="DimensionsVisible" value="1"/>
<vectornator:setting key="PencilOnly" value="1"/>
<vectornator:setting key="SnapToPoints" value="0"/>
<vectornator:setting key="OutlineMode" value="0"/>
<vectornator:setting key="CMYKEnabledKey" value="0"/>
<vectornator:setting key="RulersVisible" value="1"/>
<vectornator:setting key="SnapToEdges" value="0"/>
<vectornator:setting key="GuidesVisible" value="1"/>
<vectornator:setting key="DisplayWhiteBackground" value="0"/>
<vectornator:setting key="doHistoryDisabled" value="0"/>
<vectornator:setting key="SnapToGuides" value="1"/>
<vectornator:setting key="TimeLapseWatermarkDisabled" value="0"/>
<vectornator:setting key="Units" value="Points"/>
<vectornator:setting key="DynamicGuides" value="0"/>
<vectornator:setting key="IsolateActiveLayer" value="0"/>
<vectornator:setting key="SnapToGrid" value="0"/>
</metadata>
<defs/>
<g id="Layer 1" vectornator:layerName="Layer 1">
<path stroke="#000000" stroke-width="5" d="M68.9628+51.4049C94.0356+32.6003+19.4422+42.0798+51.4953+67.9689C67.2349+80.6816+116.298+59.3021+94.2605+35.7444C54.2102-7.06798-4.22764+52.5355+10.8383+98.9887C31.5055+162.713+132.004+97.5301+114.137+75.1968C105.354+64.2175+50.4721+105.519+70.7698+117.36C86.5279+126.552+96.4188+65.6097+109.319+78.5096C119.045+88.2356+103.887+132.648+108.716+119.769C112.015+110.972+116.112+89.9327+125.582+86.9422C132.436+84.7776+131.605+103.517+131.605+106.819C131.605+111.421+133.906+104.544+134.315+103.807C149.074+77.2414+164.828+103.797+177.984+112.842C186.786+118.894+195.83+78.1772+198.764+88.448C201.181+96.9064+199.835+116.083+214.425+110.734C217.955+109.44+230.377+101.726+233.699+107.421C256.849+147.107+188.372+205.61+151.18+176.388C141.752+168.98+202.616+141.539+203.884+140.85C237.01+122.856+268.711+101.237+292.727+71.884" fill="none" stroke-linecap="round" opacity="1" stroke-linejoin="round"/>
</g>
</svg>
