<?xml version="1.0" encoding="UTF-8" standalone="no"?> <!-- Created with Vectornator for iOS (http://vectornator.io/) --><!DOCTYPE svg PUBLIC "-//W3C//DTD SVG 1.1//EN" "http://www.w3.org/Graphics/SVG/1.1/DTD/svg11.dtd">
<svg height="100%" style="fill-rule:nonzero;clip-rule:evenodd;stroke-linecap:round;stroke-linejoin:round;" xmlns:xlink="http://www.w3.org/1999/xlink" xmlns="http://www.w3.org/2000/svg" xml:space="preserve" width="100%" xmlns:vectornator="http://vectornator.io" version="1.1" viewBox="0 0 210 148">
<metadata>
<vectornator:setting key="DimensionsVisible" value="1"/>
<vectornator:setting key="PencilOnly" value="1"/>
<vectornator:setting key="SnapToPoints" value="0"/>
<vectornator:setting key="OutlineMode" value="0"/>
<vectornator:setting key="CMYKEnabledKey" value="0"/>
<vectornator:setting key="RulersVisible" value="1"/>
<vectornator:setting key="SnapToEdges" value="0"/>
<vectornator:setting key="GuidesVisible" value="1"/>
<vectornator:setting key="DisplayWhiteBackground" value="0"/>
<vectornator:setting key="doHistoryDisabled" value="0"/>
<vectornator:setting key="SnapToGuides" value="1"/>
<vectornator:setting key="TimeLapseWatermarkDisabled" value="0"/>
<vectornator:setting key="Units" value="Points"/>
<vectornator:setting key="DynamicGuides" value="0"/>
<vectornator:setting key="IsolateActiveLayer" value="0"/>
<vectornator:setting key="SnapToGrid" value="0"/>
</metadata>
<defs/>
<g id="Layer 1" vectornator:layerName="Layer 1">
<path stroke="#000000" stroke-width="5" d="M54.3365+31.0567C48.6598+8.34974+10.4115+49.6305+10.7604+62.0186C11.0842+73.5114+53.1406+51.5443+60.0702+66.1141C66.1532+78.9039+32.1099+119.067+19.7705+110.018C6.99518+100.649+62.7476+80.9739+66.623+79.8749C72.403+78.2358+88.5408+73.9115+82.8411+72.0116C74.3203+69.1713+42.3453+98.2875+48.6028+105.267C54.7601+112.135+92.5603+81.6805+93.9809+75.288C96.2769+64.9557+76.5938+104.001+86.9366+106.25C100.902+109.286+119.641+62.5579+118.062+76.7624C116.942+86.8467+95.9802+110.476+103.155+103.301C140.871+65.5845+147.71+86.5279+152.301+81.677C154.758+79.0803+157.974+75.3638+158.853+71.684C160.527+64.6844+127.408+76.7392+129.53+92.6529C131.295+105.893+174.204+63.9382+161.802+68.899C149.9+73.6598+151.521+99.5951+143.618+108.216C137.582+114.801+136.414+85.5347+127.564+86.7554C126.882+86.8494+117.083+91.6863+119.045+92.4891C178.581+116.845+200.157-29.0121+169.666+64.6397C167.198+72.2182+168.064+70.6546+162.949+82.4961C158.702+92.329+152.066+102.198+149.68+112.803C146.113+128.655+170.661+85.2424+186.211+80.5302C203.486+75.2956+195.695+106.292+194.239+112.639" fill="none" stroke-linecap="round" opacity="1" stroke-linejoin="round"/>
</g>
</svg>
